<svg id="svg" version="1.1" width="694" height="694" xmlns="http://www.w3.org/2000/svg" xmlns:xlink="http://www.w3.org/1999/xlink" style="display: block;"><g id="svgg"><path id="path0" d="M69.460 0.720 C 69.040 1.961,0.468 325.824,0.161 328.019 C -0.095 329.845,0.037 330.142,1.232 330.433 C 7.837 332.039,329.817 400.058,329.991 399.884 C 330.603 399.272,400.018 70.114,399.608 69.767 C 399.117 69.351,71.744 -0.056,70.443 -0.020 C 70.037 -0.009,69.595 0.324,69.460 0.720 M124.159 65.324 L 133.145 73.299 145.103 74.111 C 151.680 74.558,157.751 74.990,158.595 75.070 L 160.129 75.216 155.249 88.110 L 150.368 101.004 153.909 114.236 C 155.856 121.514,157.303 127.615,157.124 127.794 C 156.945 127.974,151.021 127.597,143.961 126.959 L 131.124 125.797 121.326 132.250 C 115.937 135.799,110.850 139.144,110.022 139.682 L 108.517 140.662 105.219 127.094 L 101.921 113.526 91.594 104.795 C 85.915 99.993,81.268 95.912,81.268 95.725 C 81.268 95.539,86.093 92.290,91.991 88.504 C 104.529 80.455,103.079 82.335,108.358 67.302 L 112.554 55.353 113.863 56.351 C 114.583 56.900,119.217 60.938,124.159 65.324 M319.100 141.217 C 330.144 144.008,339.977 151.270,347.167 161.944 C 348.485 163.901,348.515 163.844,344.966 166.201 C 341.091 168.774,341.770 168.941,339.204 164.784 C 320.218 134.023,275.273 144.704,270.857 181.026 C 268.386 201.349,277.917 213.726,304.517 224.740 C 338.083 238.638,351.350 253.089,353.022 277.573 C 356.728 331.839,283.489 357.021,253.088 311.933 C 250.190 307.635,250.126 307.988,254.424 304.661 C 258.638 301.398,258.017 301.235,261.095 306.413 C 285.200 346.961,343.261 323.098,333.496 276.657 C 330.219 261.076,321.664 252.963,297.897 242.896 C 267.507 230.024,255.186 217.781,252.335 197.621 C 247.349 162.361,283.135 132.128,319.100 141.217 " stroke="none" fill="#ffffff" fill-rule="evenodd"></path><path id="path1" d="M69.460 0.720 C 69.040 1.961,0.468 325.824,0.161 328.019 C -0.095 329.845,0.037 330.142,1.232 330.433 C 7.837 332.039,329.817 400.058,329.991 399.884 C 330.603 399.272,400.018 70.114,399.608 69.767 C 399.117 69.351,71.744 -0.056,70.443 -0.020 C 70.037 -0.009,69.595 0.324,69.460 0.720 M124.159 65.324 L 133.145 73.299 145.103 74.111 C 151.680 74.558,157.751 74.990,158.595 75.070 L 160.129 75.216 155.249 88.110 L 150.368 101.004 153.909 114.236 C 155.856 121.514,157.303 127.615,157.124 127.794 C 156.945 127.974,151.021 127.597,143.961 126.959 L 131.124 125.797 121.326 132.250 C 115.937 135.799,110.850 139.144,110.022 139.682 L 108.517 140.662 105.219 127.094 L 101.921 113.526 91.594 104.795 C 85.915 99.993,81.268 95.912,81.268 95.725 C 81.268 95.539,86.093 92.290,91.991 88.504 C 104.529 80.455,103.079 82.335,108.358 67.302 L 112.554 55.353 113.863 56.351 C 114.583 56.900,119.217 60.938,124.159 65.324 M319.100 141.217 C 330.144 144.008,339.977 151.270,347.167 161.944 C 348.485 163.901,348.515 163.844,344.966 166.201 C 341.091 168.774,341.770 168.941,339.204 164.784 C 320.218 134.023,275.273 144.704,270.857 181.026 C 268.386 201.349,277.917 213.726,304.517 224.740 C 338.083 238.638,351.350 253.089,353.022 277.573 C 356.728 331.839,283.489 357.021,253.088 311.933 C 250.190 307.635,250.126 307.988,254.424 304.661 C 258.638 301.398,258.017 301.235,261.095 306.413 C 285.200 346.961,343.261 323.098,333.496 276.657 C 330.219 261.076,321.664 252.963,297.897 242.896 C 267.507 230.024,255.186 217.781,252.335 197.621 C 247.349 162.361,283.135 132.128,319.100 141.217 " stroke="none" fill="#ffffff" fill-rule="evenodd"></path><path id="path2" d="M69.460 0.720 C 69.040 1.961,0.468 325.824,0.161 328.019 C -0.095 329.845,0.037 330.142,1.232 330.433 C 7.837 332.039,329.817 400.058,329.991 399.884 C 330.603 399.272,400.018 70.114,399.608 69.767 C 399.117 69.351,71.744 -0.056,70.443 -0.020 C 70.037 -0.009,69.595 0.324,69.460 0.720 M124.159 65.324 L 133.145 73.299 145.103 74.111 C 151.680 74.558,157.751 74.990,158.595 75.070 L 160.129 75.216 155.249 88.110 L 150.368 101.004 153.909 114.236 C 155.856 121.514,157.303 127.615,157.124 127.794 C 156.945 127.974,151.021 127.597,143.961 126.959 L 131.124 125.797 121.326 132.250 C 115.937 135.799,110.850 139.144,110.022 139.682 L 108.517 140.662 105.219 127.094 L 101.921 113.526 91.594 104.795 C 85.915 99.993,81.268 95.912,81.268 95.725 C 81.268 95.539,86.093 92.290,91.991 88.504 C 104.529 80.455,103.079 82.335,108.358 67.302 L 112.554 55.353 113.863 56.351 C 114.583 56.900,119.217 60.938,124.159 65.324 M319.100 141.217 C 330.144 144.008,339.977 151.270,347.167 161.944 C 348.485 163.901,348.515 163.844,344.966 166.201 C 341.091 168.774,341.770 168.941,339.204 164.784 C 320.218 134.023,275.273 144.704,270.857 181.026 C 268.386 201.349,277.917 213.726,304.517 224.740 C 338.083 238.638,351.350 253.089,353.022 277.573 C 356.728 331.839,283.489 357.021,253.088 311.933 C 250.190 307.635,250.126 307.988,254.424 304.661 C 258.638 301.398,258.017 301.235,261.095 306.413 C 285.200 346.961,343.261 323.098,333.496 276.657 C 330.219 261.076,321.664 252.963,297.897 242.896 C 267.507 230.024,255.186 217.781,252.335 197.621 C 247.349 162.361,283.135 132.128,319.100 141.217 " stroke="none" fill="#ffffff" fill-rule="evenodd"></path><path id="path3" d="M69.460 0.720 C 69.040 1.961,0.468 325.824,0.161 328.019 C -0.095 329.845,0.037 330.142,1.232 330.433 C 7.837 332.039,329.817 400.058,329.991 399.884 C 330.603 399.272,400.018 70.114,399.608 69.767 C 399.117 69.351,71.744 -0.056,70.443 -0.020 C 70.037 -0.009,69.595 0.324,69.460 0.720 M124.159 65.324 L 133.145 73.299 145.103 74.111 C 151.680 74.558,157.751 74.990,158.595 75.070 L 160.129 75.216 155.249 88.110 L 150.368 101.004 153.909 114.236 C 155.856 121.514,157.303 127.615,157.124 127.794 C 156.945 127.974,151.021 127.597,143.961 126.959 L 131.124 125.797 121.326 132.250 C 115.937 135.799,110.850 139.144,110.022 139.682 L 108.517 140.662 105.219 127.094 L 101.921 113.526 91.594 104.795 C 85.915 99.993,81.268 95.912,81.268 95.725 C 81.268 95.539,86.093 92.290,91.991 88.504 C 104.529 80.455,103.079 82.335,108.358 67.302 L 112.554 55.353 113.863 56.351 C 114.583 56.900,119.217 60.938,124.159 65.324 M319.100 141.217 C 330.144 144.008,339.977 151.270,347.167 161.944 C 348.485 163.901,348.515 163.844,344.966 166.201 C 341.091 168.774,341.770 168.941,339.204 164.784 C 320.218 134.023,275.273 144.704,270.857 181.026 C 268.386 201.349,277.917 213.726,304.517 224.740 C 338.083 238.638,351.350 253.089,353.022 277.573 C 356.728 331.839,283.489 357.021,253.088 311.933 C 250.190 307.635,250.126 307.988,254.424 304.661 C 258.638 301.398,258.017 301.235,261.095 306.413 C 285.200 346.961,343.261 323.098,333.496 276.657 C 330.219 261.076,321.664 252.963,297.897 242.896 C 267.507 230.024,255.186 217.781,252.335 197.621 C 247.349 162.361,283.135 132.128,319.100 141.217 " stroke="none" fill="#ffffff" fill-rule="evenodd"></path><path id="path4" d="M69.460 0.720 C 69.040 1.961,0.468 325.824,0.161 328.019 C -0.095 329.845,0.037 330.142,1.232 330.433 C 7.837 332.039,329.817 400.058,329.991 399.884 C 330.603 399.272,400.018 70.114,399.608 69.767 C 399.117 69.351,71.744 -0.056,70.443 -0.020 C 70.037 -0.009,69.595 0.324,69.460 0.720 M124.159 65.324 L 133.145 73.299 145.103 74.111 C 151.680 74.558,157.751 74.990,158.595 75.070 L 160.129 75.216 155.249 88.110 L 150.368 101.004 153.909 114.236 C 155.856 121.514,157.303 127.615,157.124 127.794 C 156.945 127.974,151.021 127.597,143.961 126.959 L 131.124 125.797 121.326 132.250 C 115.937 135.799,110.850 139.144,110.022 139.682 L 108.517 140.662 105.219 127.094 L 101.921 113.526 91.594 104.795 C 85.915 99.993,81.268 95.912,81.268 95.725 C 81.268 95.539,86.093 92.290,91.991 88.504 C 104.529 80.455,103.079 82.335,108.358 67.302 L 112.554 55.353 113.863 56.351 C 114.583 56.900,119.217 60.938,124.159 65.324 M319.100 141.217 C 330.144 144.008,339.977 151.270,347.167 161.944 C 348.485 163.901,348.515 163.844,344.966 166.201 C 341.091 168.774,341.770 168.941,339.204 164.784 C 320.218 134.023,275.273 144.704,270.857 181.026 C 268.386 201.349,277.917 213.726,304.517 224.740 C 338.083 238.638,351.350 253.089,353.022 277.573 C 356.728 331.839,283.489 357.021,253.088 311.933 C 250.190 307.635,250.126 307.988,254.424 304.661 C 258.638 301.398,258.017 301.235,261.095 306.413 C 285.200 346.961,343.261 323.098,333.496 276.657 C 330.219 261.076,321.664 252.963,297.897 242.896 C 267.507 230.024,255.186 217.781,252.335 197.621 C 247.349 162.361,283.135 132.128,319.100 141.217 " stroke="none" fill="#ffffff" fill-rule="evenodd"></path><path id="path5" d="M69.460 0.720 C 69.040 1.961,0.468 325.824,0.161 328.019 C -0.095 329.845,0.037 330.142,1.232 330.433 C 7.837 332.039,329.817 400.058,329.991 399.884 C 330.603 399.272,400.018 70.114,399.608 69.767 C 399.117 69.351,71.744 -0.056,70.443 -0.020 C 70.037 -0.009,69.595 0.324,69.460 0.720 M124.159 65.324 L 133.145 73.299 145.103 74.111 C 151.680 74.558,157.751 74.990,158.595 75.070 L 160.129 75.216 155.249 88.110 L 150.368 101.004 153.909 114.236 C 155.856 121.514,157.303 127.615,157.124 127.794 C 156.945 127.974,151.021 127.597,143.961 126.959 L 131.124 125.797 121.326 132.250 C 115.937 135.799,110.850 139.144,110.022 139.682 L 108.517 140.662 105.219 127.094 L 101.921 113.526 91.594 104.795 C 85.915 99.993,81.268 95.912,81.268 95.725 C 81.268 95.539,86.093 92.290,91.991 88.504 C 104.529 80.455,103.079 82.335,108.358 67.302 L 112.554 55.353 113.863 56.351 C 114.583 56.900,119.217 60.938,124.159 65.324 M319.100 141.217 C 330.144 144.008,339.977 151.270,347.167 161.944 C 348.485 163.901,348.515 163.844,344.966 166.201 C 341.091 168.774,341.770 168.941,339.204 164.784 C 320.218 134.023,275.273 144.704,270.857 181.026 C 268.386 201.349,277.917 213.726,304.517 224.740 C 338.083 238.638,351.350 253.089,353.022 277.573 C 356.728 331.839,283.489 357.021,253.088 311.933 C 250.190 307.635,250.126 307.988,254.424 304.661 C 258.638 301.398,258.017 301.235,261.095 306.413 C 285.200 346.961,343.261 323.098,333.496 276.657 C 330.219 261.076,321.664 252.963,297.897 242.896 C 267.507 230.024,255.186 217.781,252.335 197.621 C 247.349 162.361,283.135 132.128,319.100 141.217 " stroke="none" fill="#ffffff" fill-rule="evenodd"></path><path id="path6" d="M69.460 0.720 C 69.040 1.961,0.468 325.824,0.161 328.019 C -0.095 329.845,0.037 330.142,1.232 330.433 C 7.837 332.039,329.817 400.058,329.991 399.884 C 330.603 399.272,400.018 70.114,399.608 69.767 C 399.117 69.351,71.744 -0.056,70.443 -0.020 C 70.037 -0.009,69.595 0.324,69.460 0.720 M124.159 65.324 L 133.145 73.299 145.103 74.111 C 151.680 74.558,157.751 74.990,158.595 75.070 L 160.129 75.216 155.249 88.110 L 150.368 101.004 153.909 114.236 C 155.856 121.514,157.303 127.615,157.124 127.794 C 156.945 127.974,151.021 127.597,143.961 126.959 L 131.124 125.797 121.326 132.250 C 115.937 135.799,110.850 139.144,110.022 139.682 L 108.517 140.662 105.219 127.094 L 101.921 113.526 91.594 104.795 C 85.915 99.993,81.268 95.912,81.268 95.725 C 81.268 95.539,86.093 92.290,91.991 88.504 C 104.529 80.455,103.079 82.335,108.358 67.302 L 112.554 55.353 113.863 56.351 C 114.583 56.900,119.217 60.938,124.159 65.324 M319.100 141.217 C 330.144 144.008,339.977 151.270,347.167 161.944 C 348.485 163.901,348.515 163.844,344.966 166.201 C 341.091 168.774,341.770 168.941,339.204 164.784 C 320.218 134.023,275.273 144.704,270.857 181.026 C 268.386 201.349,277.917 213.726,304.517 224.740 C 338.083 238.638,351.350 253.089,353.022 277.573 C 356.728 331.839,283.489 357.021,253.088 311.933 C 250.190 307.635,250.126 307.988,254.424 304.661 C 258.638 301.398,258.017 301.235,261.095 306.413 C 285.200 346.961,343.261 323.098,333.496 276.657 C 330.219 261.076,321.664 252.963,297.897 242.896 C 267.507 230.024,255.186 217.781,252.335 197.621 C 247.349 162.361,283.135 132.128,319.100 141.217 " stroke="none" fill="#ffffff" fill-rule="evenodd"></path><path id="path7" d="M69.460 0.720 C 69.040 1.961,0.468 325.824,0.161 328.019 C -0.095 329.845,0.037 330.142,1.232 330.433 C 7.837 332.039,329.817 400.058,329.991 399.884 C 330.603 399.272,400.018 70.114,399.608 69.767 C 399.117 69.351,71.744 -0.056,70.443 -0.020 C 70.037 -0.009,69.595 0.324,69.460 0.720 M124.159 65.324 L 133.145 73.299 145.103 74.111 C 151.680 74.558,157.751 74.990,158.595 75.070 L 160.129 75.216 155.249 88.110 L 150.368 101.004 153.909 114.236 C 155.856 121.514,157.303 127.615,157.124 127.794 C 156.945 127.974,151.021 127.597,143.961 126.959 L 131.124 125.797 121.326 132.250 C 115.937 135.799,110.850 139.144,110.022 139.682 L 108.517 140.662 105.219 127.094 L 101.921 113.526 91.594 104.795 C 85.915 99.993,81.268 95.912,81.268 95.725 C 81.268 95.539,86.093 92.290,91.991 88.504 C 104.529 80.455,103.079 82.335,108.358 67.302 L 112.554 55.353 113.863 56.351 C 114.583 56.900,119.217 60.938,124.159 65.324 M319.100 141.217 C 330.144 144.008,339.977 151.270,347.167 161.944 C 348.485 163.901,348.515 163.844,344.966 166.201 C 341.091 168.774,341.770 168.941,339.204 164.784 C 320.218 134.023,275.273 144.704,270.857 181.026 C 268.386 201.349,277.917 213.726,304.517 224.740 C 338.083 238.638,351.350 253.089,353.022 277.573 C 356.728 331.839,283.489 357.021,253.088 311.933 C 250.190 307.635,250.126 307.988,254.424 304.661 C 258.638 301.398,258.017 301.235,261.095 306.413 C 285.200 346.961,343.261 323.098,333.496 276.657 C 330.219 261.076,321.664 252.963,297.897 242.896 C 267.507 230.024,255.186 217.781,252.335 197.621 C 247.349 162.361,283.135 132.128,319.100 141.217 " stroke="none" fill="#ffffff" fill-rule="evenodd"></path><path id="path8" d="M69.460 0.720 C 69.040 1.961,0.468 325.824,0.161 328.019 C -0.095 329.845,0.037 330.142,1.232 330.433 C 7.837 332.039,329.817 400.058,329.991 399.884 C 330.603 399.272,400.018 70.114,399.608 69.767 C 399.117 69.351,71.744 -0.056,70.443 -0.020 C 70.037 -0.009,69.595 0.324,69.460 0.720 M124.159 65.324 L 133.145 73.299 145.103 74.111 C 151.680 74.558,157.751 74.990,158.595 75.070 L 160.129 75.216 155.249 88.110 L 150.368 101.004 153.909 114.236 C 155.856 121.514,157.303 127.615,157.124 127.794 C 156.945 127.974,151.021 127.597,143.961 126.959 L 131.124 125.797 121.326 132.250 C 115.937 135.799,110.850 139.144,110.022 139.682 L 108.517 140.662 105.219 127.094 L 101.921 113.526 91.594 104.795 C 85.915 99.993,81.268 95.912,81.268 95.725 C 81.268 95.539,86.093 92.290,91.991 88.504 C 104.529 80.455,103.079 82.335,108.358 67.302 L 112.554 55.353 113.863 56.351 C 114.583 56.900,119.217 60.938,124.159 65.324 M319.100 141.217 C 330.144 144.008,339.977 151.270,347.167 161.944 C 348.485 163.901,348.515 163.844,344.966 166.201 C 341.091 168.774,341.770 168.941,339.204 164.784 C 320.218 134.023,275.273 144.704,270.857 181.026 C 268.386 201.349,277.917 213.726,304.517 224.740 C 338.083 238.638,351.350 253.089,353.022 277.573 C 356.728 331.839,283.489 357.021,253.088 311.933 C 250.190 307.635,250.126 307.988,254.424 304.661 C 258.638 301.398,258.017 301.235,261.095 306.413 C 285.200 346.961,343.261 323.098,333.496 276.657 C 330.219 261.076,321.664 252.963,297.897 242.896 C 267.507 230.024,255.186 217.781,252.335 197.621 C 247.349 162.361,283.135 132.128,319.100 141.217 " stroke="none" fill="#ffffff" fill-rule="evenodd"></path><path id="path9" d="M69.460 0.720 C 69.040 1.961,0.468 325.824,0.161 328.019 C -0.095 329.845,0.037 330.142,1.232 330.433 C 7.837 332.039,329.817 400.058,329.991 399.884 C 330.603 399.272,400.018 70.114,399.608 69.767 C 399.117 69.351,71.744 -0.056,70.443 -0.020 C 70.037 -0.009,69.595 0.324,69.460 0.720 M124.159 65.324 L 133.145 73.299 145.103 74.111 C 151.680 74.558,157.751 74.990,158.595 75.070 L 160.129 75.216 155.249 88.110 L 150.368 101.004 153.909 114.236 C 155.856 121.514,157.303 127.615,157.124 127.794 C 156.945 127.974,151.021 127.597,143.961 126.959 L 131.124 125.797 121.326 132.250 C 115.937 135.799,110.850 139.144,110.022 139.682 L 108.517 140.662 105.219 127.094 L 101.921 113.526 91.594 104.795 C 85.915 99.993,81.268 95.912,81.268 95.725 C 81.268 95.539,86.093 92.290,91.991 88.504 C 104.529 80.455,103.079 82.335,108.358 67.302 L 112.554 55.353 113.863 56.351 C 114.583 56.900,119.217 60.938,124.159 65.324 M319.100 141.217 C 330.144 144.008,339.977 151.270,347.167 161.944 C 348.485 163.901,348.515 163.844,344.966 166.201 C 341.091 168.774,341.770 168.941,339.204 164.784 C 320.218 134.023,275.273 144.704,270.857 181.026 C 268.386 201.349,277.917 213.726,304.517 224.740 C 338.083 238.638,351.350 253.089,353.022 277.573 C 356.728 331.839,283.489 357.021,253.088 311.933 C 250.190 307.635,250.126 307.988,254.424 304.661 C 258.638 301.398,258.017 301.235,261.095 306.413 C 285.200 346.961,343.261 323.098,333.496 276.657 C 330.219 261.076,321.664 252.963,297.897 242.896 C 267.507 230.024,255.186 217.781,252.335 197.621 C 247.349 162.361,283.135 132.128,319.100 141.217 " stroke="none" fill="#ffffff" fill-rule="evenodd"></path></g></svg>